# xmcd CD database file
#
# Track frame offsets:
#	150
#	10996
#	19646
#	31265
#	47354
#	64012
#	81097
#	93620
#	111727
#	126677
#	138454
#	153967
#	165354
#	181360
#	194108
#
# Disc length: 2699 seconds
#
# Revision: 0
# Processed by: cddbd v1.5.2PL0 Copyright (c) Steve Scherf et al.
# Submitted via: CDex 1.86
#
DISCID=cc0a890f
DTITLE=Richard Roblee's Very Little Big Band - Goin' To The Roots
DYEAR=2001
DGENRE=Jazz
TTITLE0=Spielt Mit Uns!
TTITLE1=Down By The Riverside
TTITLE2=Judy
TTITLE3=Three Walk Around A Tree
TTITLE4=Careless Love
TTITLE5=I Looked At You
TTITLE6=I Can't Give You Anything But Love
TTITLE7=Whoopee Blues
TTITLE8=Rockin' Chair
TTITLE9=Deep River
TTITLE10=Glory Hallelujah
TTITLE11=Swing Low, Sweet Chariot
TTITLE12=Up A Lazy River
TTITLE13=Amazing Grace
TTITLE14=Oh When The Saints
EXTD=YEAR: 2001
EXTT0=
EXTT1=
EXTT2=
EXTT3=
EXTT4=
EXTT5=
EXTT6=
EXTT7=
EXTT8=
EXTT9=
EXTT10=
EXTT11=
EXTT12=
EXTT13=
EXTT14=
PLAYORDER=
